<mxfile host="Electron" agent="Mozilla/5.0 (Windows NT 10.0; Win64; x64) AppleWebKit/537.36 (KHTML, like Gecko) draw.io/26.2.15 Chrome/134.0.6998.205 Electron/35.2.1 Safari/537.36" version="26.2.15">
  <diagram name="Page-1" id="X6P3JUIKMiRZ-kBFgVsQ">
    <mxGraphModel dx="2227" dy="1323" grid="1" gridSize="10" guides="1" tooltips="1" connect="1" arrows="1" fold="1" page="1" pageScale="1" pageWidth="1800" pageHeight="900" math="0" shadow="0">
      <root>
        <mxCell id="0" />
        <mxCell id="1" parent="0" />
        <mxCell id="HMG4qMc4gZ07I0upvnWa-1" value="" style="rounded=1;whiteSpace=wrap;html=1;arcSize=1;" vertex="1" parent="1">
          <mxGeometry x="40" y="40" width="1560" height="800" as="geometry" />
        </mxCell>
        <mxCell id="HMG4qMc4gZ07I0upvnWa-2" value="" style="rounded=1;whiteSpace=wrap;html=1;arcSize=2;fillColor=#dae8fc;strokeColor=#6c8ebf;" vertex="1" parent="1">
          <mxGeometry x="70" y="70" width="360" height="410" as="geometry" />
        </mxCell>
        <mxCell id="HMG4qMc4gZ07I0upvnWa-3" value="" style="rounded=1;whiteSpace=wrap;html=1;arcSize=2;fillColor=#d5e8d4;strokeColor=#82b366;" vertex="1" parent="1">
          <mxGeometry x="490" y="70" width="360" height="410" as="geometry" />
        </mxCell>
        <mxCell id="HMG4qMc4gZ07I0upvnWa-4" value="" style="rounded=1;whiteSpace=wrap;html=1;arcSize=2;fillColor=#ffe6cc;strokeColor=#d79b00;" vertex="1" parent="1">
          <mxGeometry x="900" y="70" width="360" height="410" as="geometry" />
        </mxCell>
        <mxCell id="HMG4qMc4gZ07I0upvnWa-5" value="" style="rounded=1;whiteSpace=wrap;html=1;arcSize=2;fillColor=#e1d5e7;strokeColor=#9673a6;" vertex="1" parent="1">
          <mxGeometry x="1300" y="70" width="260" height="410" as="geometry" />
        </mxCell>
        <mxCell id="HMG4qMc4gZ07I0upvnWa-6" value="" style="rounded=1;whiteSpace=wrap;html=1;arcSize=2;fillColor=#f5f5f5;fontColor=#333333;strokeColor=#666666;" vertex="1" parent="1">
          <mxGeometry x="1340" y="640" width="260" height="200" as="geometry" />
        </mxCell>
        <mxCell id="HMG4qMc4gZ07I0upvnWa-7" value="" style="rounded=1;whiteSpace=wrap;html=1;arcSize=2;fillColor=#fff2cc;strokeColor=#d6b656;" vertex="1" parent="1">
          <mxGeometry x="410" y="580" width="420" height="200" as="geometry" />
        </mxCell>
        <mxCell id="HMG4qMc4gZ07I0upvnWa-9" value="" style="rounded=1;whiteSpace=wrap;html=1;arcSize=2;fillColor=#f8cecc;strokeColor=#b85450;" vertex="1" parent="1">
          <mxGeometry x="40" y="580" width="300" height="260" as="geometry" />
        </mxCell>
        <mxCell id="HMG4qMc4gZ07I0upvnWa-10" value="" style="rounded=1;whiteSpace=wrap;html=1;arcSize=2;fillColor=#ffe6cc;strokeColor=#d79b00;" vertex="1" parent="1">
          <mxGeometry x="860" y="580" width="420" height="200" as="geometry" />
        </mxCell>
        <mxCell id="HMG4qMc4gZ07I0upvnWa-11" value="Returns &amp;amp; Re-Processing" style="text;html=1;align=center;verticalAlign=middle;whiteSpace=wrap;rounded=0;fontSize=20;fontStyle=1" vertex="1" parent="1">
          <mxGeometry x="60" y="610" width="150" height="30" as="geometry" />
        </mxCell>
        <mxCell id="HMG4qMc4gZ07I0upvnWa-12" value="" style="verticalLabelPosition=bottom;html=1;verticalAlign=top;align=center;shape=mxgraph.floorplan.doorRight;aspect=fixed;rotation=-90;flipV=0;flipH=1;" vertex="1" parent="1">
          <mxGeometry x="42" y="799" width="40" height="42.5" as="geometry" />
        </mxCell>
        <mxCell id="HMG4qMc4gZ07I0upvnWa-13" value="" style="rounded=1;whiteSpace=wrap;html=1;aspect=fixed;" vertex="1" parent="1">
          <mxGeometry x="450" y="610" width="30" height="16.36" as="geometry" />
        </mxCell>
        <mxCell id="HMG4qMc4gZ07I0upvnWa-14" value="" style="rounded=1;whiteSpace=wrap;html=1;aspect=fixed;" vertex="1" parent="1">
          <mxGeometry x="484" y="610" width="30" height="16.36" as="geometry" />
        </mxCell>
        <mxCell id="HMG4qMc4gZ07I0upvnWa-15" value="" style="rounded=1;whiteSpace=wrap;html=1;aspect=fixed;" vertex="1" parent="1">
          <mxGeometry x="450" y="630" width="30" height="16.36" as="geometry" />
        </mxCell>
        <mxCell id="HMG4qMc4gZ07I0upvnWa-16" value="" style="rounded=1;whiteSpace=wrap;html=1;aspect=fixed;" vertex="1" parent="1">
          <mxGeometry x="484" y="630" width="30" height="16.36" as="geometry" />
        </mxCell>
        <mxCell id="HMG4qMc4gZ07I0upvnWa-17" value="" style="rounded=1;whiteSpace=wrap;html=1;aspect=fixed;" vertex="1" parent="1">
          <mxGeometry x="450" y="650" width="30" height="16.36" as="geometry" />
        </mxCell>
        <mxCell id="HMG4qMc4gZ07I0upvnWa-18" value="" style="rounded=1;whiteSpace=wrap;html=1;aspect=fixed;" vertex="1" parent="1">
          <mxGeometry x="484" y="650" width="30" height="16.36" as="geometry" />
        </mxCell>
        <mxCell id="HMG4qMc4gZ07I0upvnWa-19" value="" style="rounded=1;whiteSpace=wrap;html=1;aspect=fixed;" vertex="1" parent="1">
          <mxGeometry x="450" y="670.36" width="30" height="16.36" as="geometry" />
        </mxCell>
        <mxCell id="HMG4qMc4gZ07I0upvnWa-20" value="" style="rounded=1;whiteSpace=wrap;html=1;aspect=fixed;" vertex="1" parent="1">
          <mxGeometry x="484" y="670.36" width="30" height="16.36" as="geometry" />
        </mxCell>
        <mxCell id="HMG4qMc4gZ07I0upvnWa-21" value="" style="rounded=1;whiteSpace=wrap;html=1;aspect=fixed;" vertex="1" parent="1">
          <mxGeometry x="450" y="690" width="30" height="16.36" as="geometry" />
        </mxCell>
        <mxCell id="HMG4qMc4gZ07I0upvnWa-22" value="" style="rounded=1;whiteSpace=wrap;html=1;aspect=fixed;" vertex="1" parent="1">
          <mxGeometry x="484" y="690" width="30" height="16.36" as="geometry" />
        </mxCell>
        <mxCell id="HMG4qMc4gZ07I0upvnWa-23" value="" style="rounded=1;whiteSpace=wrap;html=1;aspect=fixed;" vertex="1" parent="1">
          <mxGeometry x="450" y="710" width="30" height="16.36" as="geometry" />
        </mxCell>
        <mxCell id="HMG4qMc4gZ07I0upvnWa-24" value="" style="rounded=1;whiteSpace=wrap;html=1;aspect=fixed;" vertex="1" parent="1">
          <mxGeometry x="484" y="710" width="30" height="16.36" as="geometry" />
        </mxCell>
        <mxCell id="HMG4qMc4gZ07I0upvnWa-25" value="" style="rounded=1;whiteSpace=wrap;html=1;aspect=fixed;" vertex="1" parent="1">
          <mxGeometry x="450" y="730" width="30" height="16.36" as="geometry" />
        </mxCell>
        <mxCell id="HMG4qMc4gZ07I0upvnWa-26" value="" style="rounded=1;whiteSpace=wrap;html=1;aspect=fixed;" vertex="1" parent="1">
          <mxGeometry x="484" y="730" width="30" height="16.36" as="geometry" />
        </mxCell>
        <mxCell id="HMG4qMc4gZ07I0upvnWa-29" value="" style="rounded=1;whiteSpace=wrap;html=1;aspect=fixed;" vertex="1" parent="1">
          <mxGeometry x="540" y="610" width="30" height="16.36" as="geometry" />
        </mxCell>
        <mxCell id="HMG4qMc4gZ07I0upvnWa-30" value="" style="rounded=1;whiteSpace=wrap;html=1;aspect=fixed;" vertex="1" parent="1">
          <mxGeometry x="574" y="610" width="30" height="16.36" as="geometry" />
        </mxCell>
        <mxCell id="HMG4qMc4gZ07I0upvnWa-31" value="" style="rounded=1;whiteSpace=wrap;html=1;aspect=fixed;" vertex="1" parent="1">
          <mxGeometry x="540" y="630" width="30" height="16.36" as="geometry" />
        </mxCell>
        <mxCell id="HMG4qMc4gZ07I0upvnWa-32" value="" style="rounded=1;whiteSpace=wrap;html=1;aspect=fixed;" vertex="1" parent="1">
          <mxGeometry x="574" y="630" width="30" height="16.36" as="geometry" />
        </mxCell>
        <mxCell id="HMG4qMc4gZ07I0upvnWa-33" value="" style="rounded=1;whiteSpace=wrap;html=1;aspect=fixed;" vertex="1" parent="1">
          <mxGeometry x="540" y="650" width="30" height="16.36" as="geometry" />
        </mxCell>
        <mxCell id="HMG4qMc4gZ07I0upvnWa-34" value="" style="rounded=1;whiteSpace=wrap;html=1;aspect=fixed;" vertex="1" parent="1">
          <mxGeometry x="574" y="650" width="30" height="16.36" as="geometry" />
        </mxCell>
        <mxCell id="HMG4qMc4gZ07I0upvnWa-35" value="" style="rounded=1;whiteSpace=wrap;html=1;aspect=fixed;" vertex="1" parent="1">
          <mxGeometry x="540" y="670.36" width="30" height="16.36" as="geometry" />
        </mxCell>
        <mxCell id="HMG4qMc4gZ07I0upvnWa-36" value="" style="rounded=1;whiteSpace=wrap;html=1;aspect=fixed;" vertex="1" parent="1">
          <mxGeometry x="574" y="670.36" width="30" height="16.36" as="geometry" />
        </mxCell>
        <mxCell id="HMG4qMc4gZ07I0upvnWa-37" value="" style="rounded=1;whiteSpace=wrap;html=1;aspect=fixed;" vertex="1" parent="1">
          <mxGeometry x="540" y="690" width="30" height="16.36" as="geometry" />
        </mxCell>
        <mxCell id="HMG4qMc4gZ07I0upvnWa-38" value="" style="rounded=1;whiteSpace=wrap;html=1;aspect=fixed;" vertex="1" parent="1">
          <mxGeometry x="574" y="690" width="30" height="16.36" as="geometry" />
        </mxCell>
        <mxCell id="HMG4qMc4gZ07I0upvnWa-39" value="" style="rounded=1;whiteSpace=wrap;html=1;aspect=fixed;" vertex="1" parent="1">
          <mxGeometry x="540" y="710" width="30" height="16.36" as="geometry" />
        </mxCell>
        <mxCell id="HMG4qMc4gZ07I0upvnWa-40" value="" style="rounded=1;whiteSpace=wrap;html=1;aspect=fixed;" vertex="1" parent="1">
          <mxGeometry x="574" y="710" width="30" height="16.36" as="geometry" />
        </mxCell>
        <mxCell id="HMG4qMc4gZ07I0upvnWa-41" value="" style="rounded=1;whiteSpace=wrap;html=1;aspect=fixed;" vertex="1" parent="1">
          <mxGeometry x="540" y="730" width="30" height="16.36" as="geometry" />
        </mxCell>
        <mxCell id="HMG4qMc4gZ07I0upvnWa-42" value="" style="rounded=1;whiteSpace=wrap;html=1;aspect=fixed;" vertex="1" parent="1">
          <mxGeometry x="574" y="730" width="30" height="16.36" as="geometry" />
        </mxCell>
        <mxCell id="HMG4qMc4gZ07I0upvnWa-43" value="" style="rounded=1;whiteSpace=wrap;html=1;aspect=fixed;" vertex="1" parent="1">
          <mxGeometry x="630" y="610.36" width="30" height="16.36" as="geometry" />
        </mxCell>
        <mxCell id="HMG4qMc4gZ07I0upvnWa-44" value="" style="rounded=1;whiteSpace=wrap;html=1;aspect=fixed;" vertex="1" parent="1">
          <mxGeometry x="664" y="610.36" width="30" height="16.36" as="geometry" />
        </mxCell>
        <mxCell id="HMG4qMc4gZ07I0upvnWa-45" value="" style="rounded=1;whiteSpace=wrap;html=1;aspect=fixed;" vertex="1" parent="1">
          <mxGeometry x="630" y="630.36" width="30" height="16.36" as="geometry" />
        </mxCell>
        <mxCell id="HMG4qMc4gZ07I0upvnWa-46" value="" style="rounded=1;whiteSpace=wrap;html=1;aspect=fixed;" vertex="1" parent="1">
          <mxGeometry x="664" y="630.36" width="30" height="16.36" as="geometry" />
        </mxCell>
        <mxCell id="HMG4qMc4gZ07I0upvnWa-47" value="" style="rounded=1;whiteSpace=wrap;html=1;aspect=fixed;" vertex="1" parent="1">
          <mxGeometry x="630" y="650.36" width="30" height="16.36" as="geometry" />
        </mxCell>
        <mxCell id="HMG4qMc4gZ07I0upvnWa-48" value="" style="rounded=1;whiteSpace=wrap;html=1;aspect=fixed;" vertex="1" parent="1">
          <mxGeometry x="664" y="650.36" width="30" height="16.36" as="geometry" />
        </mxCell>
        <mxCell id="HMG4qMc4gZ07I0upvnWa-49" value="" style="rounded=1;whiteSpace=wrap;html=1;aspect=fixed;" vertex="1" parent="1">
          <mxGeometry x="630" y="670.72" width="30" height="16.36" as="geometry" />
        </mxCell>
        <mxCell id="HMG4qMc4gZ07I0upvnWa-50" value="" style="rounded=1;whiteSpace=wrap;html=1;aspect=fixed;" vertex="1" parent="1">
          <mxGeometry x="664" y="670.72" width="30" height="16.36" as="geometry" />
        </mxCell>
        <mxCell id="HMG4qMc4gZ07I0upvnWa-51" value="" style="rounded=1;whiteSpace=wrap;html=1;aspect=fixed;" vertex="1" parent="1">
          <mxGeometry x="630" y="690.36" width="30" height="16.36" as="geometry" />
        </mxCell>
        <mxCell id="HMG4qMc4gZ07I0upvnWa-52" value="" style="rounded=1;whiteSpace=wrap;html=1;aspect=fixed;" vertex="1" parent="1">
          <mxGeometry x="664" y="690.36" width="30" height="16.36" as="geometry" />
        </mxCell>
        <mxCell id="HMG4qMc4gZ07I0upvnWa-53" value="" style="rounded=1;whiteSpace=wrap;html=1;aspect=fixed;" vertex="1" parent="1">
          <mxGeometry x="630" y="710.36" width="30" height="16.36" as="geometry" />
        </mxCell>
        <mxCell id="HMG4qMc4gZ07I0upvnWa-54" value="" style="rounded=1;whiteSpace=wrap;html=1;aspect=fixed;" vertex="1" parent="1">
          <mxGeometry x="664" y="710.36" width="30" height="16.36" as="geometry" />
        </mxCell>
        <mxCell id="HMG4qMc4gZ07I0upvnWa-55" value="" style="rounded=1;whiteSpace=wrap;html=1;aspect=fixed;" vertex="1" parent="1">
          <mxGeometry x="630" y="730.36" width="30" height="16.36" as="geometry" />
        </mxCell>
        <mxCell id="HMG4qMc4gZ07I0upvnWa-56" value="" style="rounded=1;whiteSpace=wrap;html=1;aspect=fixed;" vertex="1" parent="1">
          <mxGeometry x="664" y="730.36" width="30" height="16.36" as="geometry" />
        </mxCell>
        <mxCell id="HMG4qMc4gZ07I0upvnWa-57" value="" style="rounded=1;whiteSpace=wrap;html=1;aspect=fixed;" vertex="1" parent="1">
          <mxGeometry x="720" y="610" width="30" height="16.36" as="geometry" />
        </mxCell>
        <mxCell id="HMG4qMc4gZ07I0upvnWa-58" value="" style="rounded=1;whiteSpace=wrap;html=1;aspect=fixed;" vertex="1" parent="1">
          <mxGeometry x="754" y="610" width="30" height="16.36" as="geometry" />
        </mxCell>
        <mxCell id="HMG4qMc4gZ07I0upvnWa-59" value="" style="rounded=1;whiteSpace=wrap;html=1;aspect=fixed;" vertex="1" parent="1">
          <mxGeometry x="720" y="630" width="30" height="16.36" as="geometry" />
        </mxCell>
        <mxCell id="HMG4qMc4gZ07I0upvnWa-60" value="" style="rounded=1;whiteSpace=wrap;html=1;aspect=fixed;" vertex="1" parent="1">
          <mxGeometry x="754" y="630" width="30" height="16.36" as="geometry" />
        </mxCell>
        <mxCell id="HMG4qMc4gZ07I0upvnWa-61" value="" style="rounded=1;whiteSpace=wrap;html=1;aspect=fixed;" vertex="1" parent="1">
          <mxGeometry x="720" y="650" width="30" height="16.36" as="geometry" />
        </mxCell>
        <mxCell id="HMG4qMc4gZ07I0upvnWa-62" value="" style="rounded=1;whiteSpace=wrap;html=1;aspect=fixed;" vertex="1" parent="1">
          <mxGeometry x="754" y="650" width="30" height="16.36" as="geometry" />
        </mxCell>
        <mxCell id="HMG4qMc4gZ07I0upvnWa-63" value="" style="rounded=1;whiteSpace=wrap;html=1;aspect=fixed;" vertex="1" parent="1">
          <mxGeometry x="720" y="670.36" width="30" height="16.36" as="geometry" />
        </mxCell>
        <mxCell id="HMG4qMc4gZ07I0upvnWa-64" value="" style="rounded=1;whiteSpace=wrap;html=1;aspect=fixed;" vertex="1" parent="1">
          <mxGeometry x="754" y="670.36" width="30" height="16.36" as="geometry" />
        </mxCell>
        <mxCell id="HMG4qMc4gZ07I0upvnWa-65" value="" style="rounded=1;whiteSpace=wrap;html=1;aspect=fixed;" vertex="1" parent="1">
          <mxGeometry x="720" y="690" width="30" height="16.36" as="geometry" />
        </mxCell>
        <mxCell id="HMG4qMc4gZ07I0upvnWa-66" value="" style="rounded=1;whiteSpace=wrap;html=1;aspect=fixed;" vertex="1" parent="1">
          <mxGeometry x="754" y="690" width="30" height="16.36" as="geometry" />
        </mxCell>
        <mxCell id="HMG4qMc4gZ07I0upvnWa-67" value="" style="rounded=1;whiteSpace=wrap;html=1;aspect=fixed;" vertex="1" parent="1">
          <mxGeometry x="720" y="710" width="30" height="16.36" as="geometry" />
        </mxCell>
        <mxCell id="HMG4qMc4gZ07I0upvnWa-68" value="" style="rounded=1;whiteSpace=wrap;html=1;aspect=fixed;" vertex="1" parent="1">
          <mxGeometry x="754" y="710" width="30" height="16.36" as="geometry" />
        </mxCell>
        <mxCell id="HMG4qMc4gZ07I0upvnWa-69" value="" style="rounded=1;whiteSpace=wrap;html=1;aspect=fixed;" vertex="1" parent="1">
          <mxGeometry x="720" y="730" width="30" height="16.36" as="geometry" />
        </mxCell>
        <mxCell id="HMG4qMc4gZ07I0upvnWa-70" value="" style="rounded=1;whiteSpace=wrap;html=1;aspect=fixed;" vertex="1" parent="1">
          <mxGeometry x="754" y="730" width="30" height="16.36" as="geometry" />
        </mxCell>
        <mxCell id="HMG4qMc4gZ07I0upvnWa-71" value="" style="rounded=1;whiteSpace=wrap;html=1;aspect=fixed;" vertex="1" parent="1">
          <mxGeometry x="903" y="609.64" width="30" height="16.36" as="geometry" />
        </mxCell>
        <mxCell id="HMG4qMc4gZ07I0upvnWa-72" value="" style="rounded=1;whiteSpace=wrap;html=1;aspect=fixed;" vertex="1" parent="1">
          <mxGeometry x="937" y="609.64" width="30" height="16.36" as="geometry" />
        </mxCell>
        <mxCell id="HMG4qMc4gZ07I0upvnWa-73" value="" style="rounded=1;whiteSpace=wrap;html=1;aspect=fixed;" vertex="1" parent="1">
          <mxGeometry x="903" y="629.64" width="30" height="16.36" as="geometry" />
        </mxCell>
        <mxCell id="HMG4qMc4gZ07I0upvnWa-74" value="" style="rounded=1;whiteSpace=wrap;html=1;aspect=fixed;" vertex="1" parent="1">
          <mxGeometry x="937" y="629.64" width="30" height="16.36" as="geometry" />
        </mxCell>
        <mxCell id="HMG4qMc4gZ07I0upvnWa-75" value="" style="rounded=1;whiteSpace=wrap;html=1;aspect=fixed;" vertex="1" parent="1">
          <mxGeometry x="903" y="649.64" width="30" height="16.36" as="geometry" />
        </mxCell>
        <mxCell id="HMG4qMc4gZ07I0upvnWa-76" value="" style="rounded=1;whiteSpace=wrap;html=1;aspect=fixed;" vertex="1" parent="1">
          <mxGeometry x="937" y="649.64" width="30" height="16.36" as="geometry" />
        </mxCell>
        <mxCell id="HMG4qMc4gZ07I0upvnWa-77" value="" style="rounded=1;whiteSpace=wrap;html=1;aspect=fixed;" vertex="1" parent="1">
          <mxGeometry x="903" y="670" width="30" height="16.36" as="geometry" />
        </mxCell>
        <mxCell id="HMG4qMc4gZ07I0upvnWa-78" value="" style="rounded=1;whiteSpace=wrap;html=1;aspect=fixed;" vertex="1" parent="1">
          <mxGeometry x="937" y="670" width="30" height="16.36" as="geometry" />
        </mxCell>
        <mxCell id="HMG4qMc4gZ07I0upvnWa-79" value="" style="rounded=1;whiteSpace=wrap;html=1;aspect=fixed;" vertex="1" parent="1">
          <mxGeometry x="903" y="689.64" width="30" height="16.36" as="geometry" />
        </mxCell>
        <mxCell id="HMG4qMc4gZ07I0upvnWa-80" value="" style="rounded=1;whiteSpace=wrap;html=1;aspect=fixed;" vertex="1" parent="1">
          <mxGeometry x="937" y="689.64" width="30" height="16.36" as="geometry" />
        </mxCell>
        <mxCell id="HMG4qMc4gZ07I0upvnWa-81" value="" style="rounded=1;whiteSpace=wrap;html=1;aspect=fixed;" vertex="1" parent="1">
          <mxGeometry x="903" y="709.64" width="30" height="16.36" as="geometry" />
        </mxCell>
        <mxCell id="HMG4qMc4gZ07I0upvnWa-82" value="" style="rounded=1;whiteSpace=wrap;html=1;aspect=fixed;" vertex="1" parent="1">
          <mxGeometry x="937" y="709.64" width="30" height="16.36" as="geometry" />
        </mxCell>
        <mxCell id="HMG4qMc4gZ07I0upvnWa-83" value="" style="rounded=1;whiteSpace=wrap;html=1;aspect=fixed;" vertex="1" parent="1">
          <mxGeometry x="903" y="729.64" width="30" height="16.36" as="geometry" />
        </mxCell>
        <mxCell id="HMG4qMc4gZ07I0upvnWa-84" value="" style="rounded=1;whiteSpace=wrap;html=1;aspect=fixed;" vertex="1" parent="1">
          <mxGeometry x="937" y="729.64" width="30" height="16.36" as="geometry" />
        </mxCell>
        <mxCell id="HMG4qMc4gZ07I0upvnWa-85" value="" style="rounded=1;whiteSpace=wrap;html=1;aspect=fixed;" vertex="1" parent="1">
          <mxGeometry x="993" y="609.64" width="30" height="16.36" as="geometry" />
        </mxCell>
        <mxCell id="HMG4qMc4gZ07I0upvnWa-86" value="" style="rounded=1;whiteSpace=wrap;html=1;aspect=fixed;" vertex="1" parent="1">
          <mxGeometry x="1027" y="609.64" width="30" height="16.36" as="geometry" />
        </mxCell>
        <mxCell id="HMG4qMc4gZ07I0upvnWa-87" value="" style="rounded=1;whiteSpace=wrap;html=1;aspect=fixed;" vertex="1" parent="1">
          <mxGeometry x="993" y="629.64" width="30" height="16.36" as="geometry" />
        </mxCell>
        <mxCell id="HMG4qMc4gZ07I0upvnWa-88" value="" style="rounded=1;whiteSpace=wrap;html=1;aspect=fixed;" vertex="1" parent="1">
          <mxGeometry x="1027" y="629.64" width="30" height="16.36" as="geometry" />
        </mxCell>
        <mxCell id="HMG4qMc4gZ07I0upvnWa-89" value="" style="rounded=1;whiteSpace=wrap;html=1;aspect=fixed;" vertex="1" parent="1">
          <mxGeometry x="993" y="649.64" width="30" height="16.36" as="geometry" />
        </mxCell>
        <mxCell id="HMG4qMc4gZ07I0upvnWa-90" value="" style="rounded=1;whiteSpace=wrap;html=1;aspect=fixed;" vertex="1" parent="1">
          <mxGeometry x="1027" y="649.64" width="30" height="16.36" as="geometry" />
        </mxCell>
        <mxCell id="HMG4qMc4gZ07I0upvnWa-91" value="" style="rounded=1;whiteSpace=wrap;html=1;aspect=fixed;" vertex="1" parent="1">
          <mxGeometry x="993" y="670" width="30" height="16.36" as="geometry" />
        </mxCell>
        <mxCell id="HMG4qMc4gZ07I0upvnWa-92" value="" style="rounded=1;whiteSpace=wrap;html=1;aspect=fixed;" vertex="1" parent="1">
          <mxGeometry x="1027" y="670" width="30" height="16.36" as="geometry" />
        </mxCell>
        <mxCell id="HMG4qMc4gZ07I0upvnWa-93" value="" style="rounded=1;whiteSpace=wrap;html=1;aspect=fixed;" vertex="1" parent="1">
          <mxGeometry x="993" y="689.64" width="30" height="16.36" as="geometry" />
        </mxCell>
        <mxCell id="HMG4qMc4gZ07I0upvnWa-94" value="" style="rounded=1;whiteSpace=wrap;html=1;aspect=fixed;" vertex="1" parent="1">
          <mxGeometry x="1027" y="689.64" width="30" height="16.36" as="geometry" />
        </mxCell>
        <mxCell id="HMG4qMc4gZ07I0upvnWa-95" value="" style="rounded=1;whiteSpace=wrap;html=1;aspect=fixed;" vertex="1" parent="1">
          <mxGeometry x="993" y="709.64" width="30" height="16.36" as="geometry" />
        </mxCell>
        <mxCell id="HMG4qMc4gZ07I0upvnWa-96" value="" style="rounded=1;whiteSpace=wrap;html=1;aspect=fixed;" vertex="1" parent="1">
          <mxGeometry x="1027" y="709.64" width="30" height="16.36" as="geometry" />
        </mxCell>
        <mxCell id="HMG4qMc4gZ07I0upvnWa-97" value="" style="rounded=1;whiteSpace=wrap;html=1;aspect=fixed;" vertex="1" parent="1">
          <mxGeometry x="993" y="729.64" width="30" height="16.36" as="geometry" />
        </mxCell>
        <mxCell id="HMG4qMc4gZ07I0upvnWa-98" value="" style="rounded=1;whiteSpace=wrap;html=1;aspect=fixed;" vertex="1" parent="1">
          <mxGeometry x="1027" y="729.64" width="30" height="16.36" as="geometry" />
        </mxCell>
        <mxCell id="HMG4qMc4gZ07I0upvnWa-99" value="" style="rounded=1;whiteSpace=wrap;html=1;aspect=fixed;" vertex="1" parent="1">
          <mxGeometry x="1083" y="610" width="30" height="16.36" as="geometry" />
        </mxCell>
        <mxCell id="HMG4qMc4gZ07I0upvnWa-100" value="" style="rounded=1;whiteSpace=wrap;html=1;aspect=fixed;" vertex="1" parent="1">
          <mxGeometry x="1117" y="610" width="30" height="16.36" as="geometry" />
        </mxCell>
        <mxCell id="HMG4qMc4gZ07I0upvnWa-101" value="" style="rounded=1;whiteSpace=wrap;html=1;aspect=fixed;" vertex="1" parent="1">
          <mxGeometry x="1083" y="630" width="30" height="16.36" as="geometry" />
        </mxCell>
        <mxCell id="HMG4qMc4gZ07I0upvnWa-102" value="" style="rounded=1;whiteSpace=wrap;html=1;aspect=fixed;" vertex="1" parent="1">
          <mxGeometry x="1117" y="630" width="30" height="16.36" as="geometry" />
        </mxCell>
        <mxCell id="HMG4qMc4gZ07I0upvnWa-103" value="" style="rounded=1;whiteSpace=wrap;html=1;aspect=fixed;" vertex="1" parent="1">
          <mxGeometry x="1083" y="650" width="30" height="16.36" as="geometry" />
        </mxCell>
        <mxCell id="HMG4qMc4gZ07I0upvnWa-104" value="" style="rounded=1;whiteSpace=wrap;html=1;aspect=fixed;" vertex="1" parent="1">
          <mxGeometry x="1117" y="650" width="30" height="16.36" as="geometry" />
        </mxCell>
        <mxCell id="HMG4qMc4gZ07I0upvnWa-105" value="" style="rounded=1;whiteSpace=wrap;html=1;aspect=fixed;" vertex="1" parent="1">
          <mxGeometry x="1083" y="670.36" width="30" height="16.36" as="geometry" />
        </mxCell>
        <mxCell id="HMG4qMc4gZ07I0upvnWa-106" value="" style="rounded=1;whiteSpace=wrap;html=1;aspect=fixed;" vertex="1" parent="1">
          <mxGeometry x="1117" y="670.36" width="30" height="16.36" as="geometry" />
        </mxCell>
        <mxCell id="HMG4qMc4gZ07I0upvnWa-107" value="" style="rounded=1;whiteSpace=wrap;html=1;aspect=fixed;" vertex="1" parent="1">
          <mxGeometry x="1083" y="690" width="30" height="16.36" as="geometry" />
        </mxCell>
        <mxCell id="HMG4qMc4gZ07I0upvnWa-108" value="" style="rounded=1;whiteSpace=wrap;html=1;aspect=fixed;" vertex="1" parent="1">
          <mxGeometry x="1117" y="690" width="30" height="16.36" as="geometry" />
        </mxCell>
        <mxCell id="HMG4qMc4gZ07I0upvnWa-109" value="" style="rounded=1;whiteSpace=wrap;html=1;aspect=fixed;" vertex="1" parent="1">
          <mxGeometry x="1083" y="710" width="30" height="16.36" as="geometry" />
        </mxCell>
        <mxCell id="HMG4qMc4gZ07I0upvnWa-110" value="" style="rounded=1;whiteSpace=wrap;html=1;aspect=fixed;" vertex="1" parent="1">
          <mxGeometry x="1117" y="710" width="30" height="16.36" as="geometry" />
        </mxCell>
        <mxCell id="HMG4qMc4gZ07I0upvnWa-111" value="" style="rounded=1;whiteSpace=wrap;html=1;aspect=fixed;" vertex="1" parent="1">
          <mxGeometry x="1083" y="730" width="30" height="16.36" as="geometry" />
        </mxCell>
        <mxCell id="HMG4qMc4gZ07I0upvnWa-112" value="" style="rounded=1;whiteSpace=wrap;html=1;aspect=fixed;" vertex="1" parent="1">
          <mxGeometry x="1117" y="730" width="30" height="16.36" as="geometry" />
        </mxCell>
        <mxCell id="HMG4qMc4gZ07I0upvnWa-113" value="" style="rounded=1;whiteSpace=wrap;html=1;aspect=fixed;" vertex="1" parent="1">
          <mxGeometry x="1173" y="609.64" width="30" height="16.36" as="geometry" />
        </mxCell>
        <mxCell id="HMG4qMc4gZ07I0upvnWa-114" value="" style="rounded=1;whiteSpace=wrap;html=1;aspect=fixed;" vertex="1" parent="1">
          <mxGeometry x="1207" y="609.64" width="30" height="16.36" as="geometry" />
        </mxCell>
        <mxCell id="HMG4qMc4gZ07I0upvnWa-115" value="" style="rounded=1;whiteSpace=wrap;html=1;aspect=fixed;" vertex="1" parent="1">
          <mxGeometry x="1173" y="629.64" width="30" height="16.36" as="geometry" />
        </mxCell>
        <mxCell id="HMG4qMc4gZ07I0upvnWa-116" value="" style="rounded=1;whiteSpace=wrap;html=1;aspect=fixed;" vertex="1" parent="1">
          <mxGeometry x="1207" y="629.64" width="30" height="16.36" as="geometry" />
        </mxCell>
        <mxCell id="HMG4qMc4gZ07I0upvnWa-117" value="" style="rounded=1;whiteSpace=wrap;html=1;aspect=fixed;" vertex="1" parent="1">
          <mxGeometry x="1173" y="649.64" width="30" height="16.36" as="geometry" />
        </mxCell>
        <mxCell id="HMG4qMc4gZ07I0upvnWa-118" value="" style="rounded=1;whiteSpace=wrap;html=1;aspect=fixed;" vertex="1" parent="1">
          <mxGeometry x="1207" y="649.64" width="30" height="16.36" as="geometry" />
        </mxCell>
        <mxCell id="HMG4qMc4gZ07I0upvnWa-119" value="" style="rounded=1;whiteSpace=wrap;html=1;aspect=fixed;" vertex="1" parent="1">
          <mxGeometry x="1173" y="670" width="30" height="16.36" as="geometry" />
        </mxCell>
        <mxCell id="HMG4qMc4gZ07I0upvnWa-120" value="" style="rounded=1;whiteSpace=wrap;html=1;aspect=fixed;" vertex="1" parent="1">
          <mxGeometry x="1207" y="670" width="30" height="16.36" as="geometry" />
        </mxCell>
        <mxCell id="HMG4qMc4gZ07I0upvnWa-121" value="" style="rounded=1;whiteSpace=wrap;html=1;aspect=fixed;" vertex="1" parent="1">
          <mxGeometry x="1173" y="689.64" width="30" height="16.36" as="geometry" />
        </mxCell>
        <mxCell id="HMG4qMc4gZ07I0upvnWa-122" value="" style="rounded=1;whiteSpace=wrap;html=1;aspect=fixed;" vertex="1" parent="1">
          <mxGeometry x="1207" y="689.64" width="30" height="16.36" as="geometry" />
        </mxCell>
        <mxCell id="HMG4qMc4gZ07I0upvnWa-123" value="" style="rounded=1;whiteSpace=wrap;html=1;aspect=fixed;" vertex="1" parent="1">
          <mxGeometry x="1173" y="709.64" width="30" height="16.36" as="geometry" />
        </mxCell>
        <mxCell id="HMG4qMc4gZ07I0upvnWa-124" value="" style="rounded=1;whiteSpace=wrap;html=1;aspect=fixed;" vertex="1" parent="1">
          <mxGeometry x="1207" y="709.64" width="30" height="16.36" as="geometry" />
        </mxCell>
        <mxCell id="HMG4qMc4gZ07I0upvnWa-125" value="" style="rounded=1;whiteSpace=wrap;html=1;aspect=fixed;" vertex="1" parent="1">
          <mxGeometry x="1173" y="729.64" width="30" height="16.36" as="geometry" />
        </mxCell>
        <mxCell id="HMG4qMc4gZ07I0upvnWa-126" value="" style="rounded=1;whiteSpace=wrap;html=1;aspect=fixed;" vertex="1" parent="1">
          <mxGeometry x="1207" y="729.64" width="30" height="16.36" as="geometry" />
        </mxCell>
        <mxCell id="HMG4qMc4gZ07I0upvnWa-127" value="Inbound" style="text;html=1;align=center;verticalAlign=middle;whiteSpace=wrap;rounded=0;fontSize=20;fontStyle=1" vertex="1" parent="1">
          <mxGeometry x="400" y="790" width="150" height="30" as="geometry" />
        </mxCell>
        <mxCell id="HMG4qMc4gZ07I0upvnWa-128" value="Despatch" style="text;html=1;align=center;verticalAlign=middle;whiteSpace=wrap;rounded=0;fontSize=20;fontStyle=1" vertex="1" parent="1">
          <mxGeometry x="860" y="790" width="150" height="30" as="geometry" />
        </mxCell>
        <mxCell id="HMG4qMc4gZ07I0upvnWa-129" value="Warehouse&amp;nbsp;&lt;div&gt;Office&lt;/div&gt;" style="text;html=1;align=center;verticalAlign=middle;whiteSpace=wrap;rounded=0;fontSize=20;fontStyle=1" vertex="1" parent="1">
          <mxGeometry x="1350" y="650.36" width="150" height="59.64" as="geometry" />
        </mxCell>
        <mxCell id="HMG4qMc4gZ07I0upvnWa-130" value="" style="rounded=1;whiteSpace=wrap;html=1;arcSize=4;" vertex="1" parent="1">
          <mxGeometry x="118" y="104" width="30" height="40" as="geometry" />
        </mxCell>
        <mxCell id="HMG4qMc4gZ07I0upvnWa-132" value="" style="rounded=1;whiteSpace=wrap;html=1;arcSize=4;" vertex="1" parent="1">
          <mxGeometry x="152" y="104" width="30" height="40" as="geometry" />
        </mxCell>
        <mxCell id="HMG4qMc4gZ07I0upvnWa-133" value="" style="rounded=1;whiteSpace=wrap;html=1;arcSize=4;" vertex="1" parent="1">
          <mxGeometry x="118" y="144" width="30" height="40" as="geometry" />
        </mxCell>
        <mxCell id="HMG4qMc4gZ07I0upvnWa-134" value="" style="rounded=1;whiteSpace=wrap;html=1;arcSize=4;" vertex="1" parent="1">
          <mxGeometry x="152" y="144" width="30" height="40" as="geometry" />
        </mxCell>
        <mxCell id="HMG4qMc4gZ07I0upvnWa-139" value="" style="rounded=1;whiteSpace=wrap;html=1;arcSize=4;" vertex="1" parent="1">
          <mxGeometry x="118" y="185" width="30" height="40" as="geometry" />
        </mxCell>
        <mxCell id="HMG4qMc4gZ07I0upvnWa-140" value="" style="rounded=1;whiteSpace=wrap;html=1;arcSize=4;" vertex="1" parent="1">
          <mxGeometry x="152" y="185" width="30" height="40" as="geometry" />
        </mxCell>
        <mxCell id="HMG4qMc4gZ07I0upvnWa-141" value="" style="rounded=1;whiteSpace=wrap;html=1;arcSize=4;" vertex="1" parent="1">
          <mxGeometry x="118" y="225" width="30" height="40" as="geometry" />
        </mxCell>
        <mxCell id="HMG4qMc4gZ07I0upvnWa-142" value="" style="rounded=1;whiteSpace=wrap;html=1;arcSize=4;" vertex="1" parent="1">
          <mxGeometry x="152" y="225" width="30" height="40" as="geometry" />
        </mxCell>
        <mxCell id="HMG4qMc4gZ07I0upvnWa-143" value="" style="rounded=1;whiteSpace=wrap;html=1;arcSize=4;" vertex="1" parent="1">
          <mxGeometry x="118" y="266" width="30" height="40" as="geometry" />
        </mxCell>
        <mxCell id="HMG4qMc4gZ07I0upvnWa-144" value="" style="rounded=1;whiteSpace=wrap;html=1;arcSize=4;" vertex="1" parent="1">
          <mxGeometry x="152" y="266" width="30" height="40" as="geometry" />
        </mxCell>
        <mxCell id="HMG4qMc4gZ07I0upvnWa-145" value="" style="rounded=1;whiteSpace=wrap;html=1;arcSize=4;" vertex="1" parent="1">
          <mxGeometry x="118" y="306" width="30" height="40" as="geometry" />
        </mxCell>
        <mxCell id="HMG4qMc4gZ07I0upvnWa-146" value="" style="rounded=1;whiteSpace=wrap;html=1;arcSize=4;" vertex="1" parent="1">
          <mxGeometry x="152" y="306" width="30" height="40" as="geometry" />
        </mxCell>
        <mxCell id="HMG4qMc4gZ07I0upvnWa-147" value="" style="rounded=1;whiteSpace=wrap;html=1;arcSize=4;" vertex="1" parent="1">
          <mxGeometry x="118" y="347" width="30" height="40" as="geometry" />
        </mxCell>
        <mxCell id="HMG4qMc4gZ07I0upvnWa-148" value="" style="rounded=1;whiteSpace=wrap;html=1;arcSize=4;" vertex="1" parent="1">
          <mxGeometry x="152" y="347" width="30" height="40" as="geometry" />
        </mxCell>
        <mxCell id="HMG4qMc4gZ07I0upvnWa-149" value="" style="rounded=1;whiteSpace=wrap;html=1;arcSize=4;" vertex="1" parent="1">
          <mxGeometry x="118" y="387" width="30" height="40" as="geometry" />
        </mxCell>
        <mxCell id="HMG4qMc4gZ07I0upvnWa-150" value="" style="rounded=1;whiteSpace=wrap;html=1;arcSize=4;" vertex="1" parent="1">
          <mxGeometry x="152" y="387" width="30" height="40" as="geometry" />
        </mxCell>
        <mxCell id="HMG4qMc4gZ07I0upvnWa-151" value="" style="rounded=1;whiteSpace=wrap;html=1;arcSize=4;" vertex="1" parent="1">
          <mxGeometry x="218" y="104" width="30" height="40" as="geometry" />
        </mxCell>
        <mxCell id="HMG4qMc4gZ07I0upvnWa-152" value="" style="rounded=1;whiteSpace=wrap;html=1;arcSize=4;" vertex="1" parent="1">
          <mxGeometry x="252" y="104" width="30" height="40" as="geometry" />
        </mxCell>
        <mxCell id="HMG4qMc4gZ07I0upvnWa-153" value="" style="rounded=1;whiteSpace=wrap;html=1;arcSize=4;" vertex="1" parent="1">
          <mxGeometry x="218" y="144" width="30" height="40" as="geometry" />
        </mxCell>
        <mxCell id="HMG4qMc4gZ07I0upvnWa-154" value="" style="rounded=1;whiteSpace=wrap;html=1;arcSize=4;" vertex="1" parent="1">
          <mxGeometry x="252" y="144" width="30" height="40" as="geometry" />
        </mxCell>
        <mxCell id="HMG4qMc4gZ07I0upvnWa-155" value="" style="rounded=1;whiteSpace=wrap;html=1;arcSize=4;" vertex="1" parent="1">
          <mxGeometry x="218" y="185" width="30" height="40" as="geometry" />
        </mxCell>
        <mxCell id="HMG4qMc4gZ07I0upvnWa-156" value="" style="rounded=1;whiteSpace=wrap;html=1;arcSize=4;" vertex="1" parent="1">
          <mxGeometry x="252" y="185" width="30" height="40" as="geometry" />
        </mxCell>
        <mxCell id="HMG4qMc4gZ07I0upvnWa-157" value="" style="rounded=1;whiteSpace=wrap;html=1;arcSize=4;" vertex="1" parent="1">
          <mxGeometry x="218" y="225" width="30" height="40" as="geometry" />
        </mxCell>
        <mxCell id="HMG4qMc4gZ07I0upvnWa-158" value="" style="rounded=1;whiteSpace=wrap;html=1;arcSize=4;" vertex="1" parent="1">
          <mxGeometry x="252" y="225" width="30" height="40" as="geometry" />
        </mxCell>
        <mxCell id="HMG4qMc4gZ07I0upvnWa-159" value="" style="rounded=1;whiteSpace=wrap;html=1;arcSize=4;" vertex="1" parent="1">
          <mxGeometry x="218" y="266" width="30" height="40" as="geometry" />
        </mxCell>
        <mxCell id="HMG4qMc4gZ07I0upvnWa-160" value="" style="rounded=1;whiteSpace=wrap;html=1;arcSize=4;" vertex="1" parent="1">
          <mxGeometry x="252" y="266" width="30" height="40" as="geometry" />
        </mxCell>
        <mxCell id="HMG4qMc4gZ07I0upvnWa-161" value="" style="rounded=1;whiteSpace=wrap;html=1;arcSize=4;" vertex="1" parent="1">
          <mxGeometry x="218" y="306" width="30" height="40" as="geometry" />
        </mxCell>
        <mxCell id="HMG4qMc4gZ07I0upvnWa-162" value="" style="rounded=1;whiteSpace=wrap;html=1;arcSize=4;" vertex="1" parent="1">
          <mxGeometry x="252" y="306" width="30" height="40" as="geometry" />
        </mxCell>
        <mxCell id="HMG4qMc4gZ07I0upvnWa-163" value="" style="rounded=1;whiteSpace=wrap;html=1;arcSize=4;" vertex="1" parent="1">
          <mxGeometry x="218" y="347" width="30" height="40" as="geometry" />
        </mxCell>
        <mxCell id="HMG4qMc4gZ07I0upvnWa-164" value="" style="rounded=1;whiteSpace=wrap;html=1;arcSize=4;" vertex="1" parent="1">
          <mxGeometry x="252" y="347" width="30" height="40" as="geometry" />
        </mxCell>
        <mxCell id="HMG4qMc4gZ07I0upvnWa-165" value="" style="rounded=1;whiteSpace=wrap;html=1;arcSize=4;" vertex="1" parent="1">
          <mxGeometry x="218" y="387" width="30" height="40" as="geometry" />
        </mxCell>
        <mxCell id="HMG4qMc4gZ07I0upvnWa-166" value="" style="rounded=1;whiteSpace=wrap;html=1;arcSize=4;" vertex="1" parent="1">
          <mxGeometry x="252" y="387" width="30" height="40" as="geometry" />
        </mxCell>
        <mxCell id="HMG4qMc4gZ07I0upvnWa-167" value="" style="rounded=1;whiteSpace=wrap;html=1;arcSize=4;" vertex="1" parent="1">
          <mxGeometry x="318" y="104" width="30" height="40" as="geometry" />
        </mxCell>
        <mxCell id="HMG4qMc4gZ07I0upvnWa-168" value="" style="rounded=1;whiteSpace=wrap;html=1;arcSize=4;" vertex="1" parent="1">
          <mxGeometry x="352" y="104" width="30" height="40" as="geometry" />
        </mxCell>
        <mxCell id="HMG4qMc4gZ07I0upvnWa-169" value="" style="rounded=1;whiteSpace=wrap;html=1;arcSize=4;" vertex="1" parent="1">
          <mxGeometry x="318" y="144" width="30" height="40" as="geometry" />
        </mxCell>
        <mxCell id="HMG4qMc4gZ07I0upvnWa-170" value="" style="rounded=1;whiteSpace=wrap;html=1;arcSize=4;" vertex="1" parent="1">
          <mxGeometry x="352" y="144" width="30" height="40" as="geometry" />
        </mxCell>
        <mxCell id="HMG4qMc4gZ07I0upvnWa-171" value="" style="rounded=1;whiteSpace=wrap;html=1;arcSize=4;" vertex="1" parent="1">
          <mxGeometry x="318" y="185" width="30" height="40" as="geometry" />
        </mxCell>
        <mxCell id="HMG4qMc4gZ07I0upvnWa-172" value="" style="rounded=1;whiteSpace=wrap;html=1;arcSize=4;" vertex="1" parent="1">
          <mxGeometry x="352" y="185" width="30" height="40" as="geometry" />
        </mxCell>
        <mxCell id="HMG4qMc4gZ07I0upvnWa-173" value="" style="rounded=1;whiteSpace=wrap;html=1;arcSize=4;" vertex="1" parent="1">
          <mxGeometry x="318" y="225" width="30" height="40" as="geometry" />
        </mxCell>
        <mxCell id="HMG4qMc4gZ07I0upvnWa-174" value="" style="rounded=1;whiteSpace=wrap;html=1;arcSize=4;" vertex="1" parent="1">
          <mxGeometry x="352" y="225" width="30" height="40" as="geometry" />
        </mxCell>
        <mxCell id="HMG4qMc4gZ07I0upvnWa-175" value="" style="rounded=1;whiteSpace=wrap;html=1;arcSize=4;" vertex="1" parent="1">
          <mxGeometry x="318" y="266" width="30" height="40" as="geometry" />
        </mxCell>
        <mxCell id="HMG4qMc4gZ07I0upvnWa-176" value="" style="rounded=1;whiteSpace=wrap;html=1;arcSize=4;" vertex="1" parent="1">
          <mxGeometry x="352" y="266" width="30" height="40" as="geometry" />
        </mxCell>
        <mxCell id="HMG4qMc4gZ07I0upvnWa-177" value="" style="rounded=1;whiteSpace=wrap;html=1;arcSize=4;" vertex="1" parent="1">
          <mxGeometry x="318" y="306" width="30" height="40" as="geometry" />
        </mxCell>
        <mxCell id="HMG4qMc4gZ07I0upvnWa-178" value="" style="rounded=1;whiteSpace=wrap;html=1;arcSize=4;" vertex="1" parent="1">
          <mxGeometry x="352" y="306" width="30" height="40" as="geometry" />
        </mxCell>
        <mxCell id="HMG4qMc4gZ07I0upvnWa-179" value="" style="rounded=1;whiteSpace=wrap;html=1;arcSize=4;" vertex="1" parent="1">
          <mxGeometry x="318" y="347" width="30" height="40" as="geometry" />
        </mxCell>
        <mxCell id="HMG4qMc4gZ07I0upvnWa-180" value="" style="rounded=1;whiteSpace=wrap;html=1;arcSize=4;" vertex="1" parent="1">
          <mxGeometry x="352" y="347" width="30" height="40" as="geometry" />
        </mxCell>
        <mxCell id="HMG4qMc4gZ07I0upvnWa-181" value="" style="rounded=1;whiteSpace=wrap;html=1;arcSize=4;" vertex="1" parent="1">
          <mxGeometry x="318" y="387" width="30" height="40" as="geometry" />
        </mxCell>
        <mxCell id="HMG4qMc4gZ07I0upvnWa-182" value="" style="rounded=1;whiteSpace=wrap;html=1;arcSize=4;" vertex="1" parent="1">
          <mxGeometry x="352" y="387" width="30" height="40" as="geometry" />
        </mxCell>
        <mxCell id="HMG4qMc4gZ07I0upvnWa-183" value="" style="rounded=1;whiteSpace=wrap;html=1;arcSize=4;" vertex="1" parent="1">
          <mxGeometry x="542" y="113.5" width="30" height="40" as="geometry" />
        </mxCell>
        <mxCell id="HMG4qMc4gZ07I0upvnWa-184" value="" style="rounded=1;whiteSpace=wrap;html=1;arcSize=4;" vertex="1" parent="1">
          <mxGeometry x="576" y="113.5" width="30" height="40" as="geometry" />
        </mxCell>
        <mxCell id="HMG4qMc4gZ07I0upvnWa-185" value="" style="rounded=1;whiteSpace=wrap;html=1;arcSize=4;" vertex="1" parent="1">
          <mxGeometry x="542" y="153.5" width="30" height="40" as="geometry" />
        </mxCell>
        <mxCell id="HMG4qMc4gZ07I0upvnWa-186" value="" style="rounded=1;whiteSpace=wrap;html=1;arcSize=4;" vertex="1" parent="1">
          <mxGeometry x="576" y="153.5" width="30" height="40" as="geometry" />
        </mxCell>
        <mxCell id="HMG4qMc4gZ07I0upvnWa-187" value="" style="rounded=1;whiteSpace=wrap;html=1;arcSize=4;" vertex="1" parent="1">
          <mxGeometry x="542" y="194.5" width="30" height="40" as="geometry" />
        </mxCell>
        <mxCell id="HMG4qMc4gZ07I0upvnWa-188" value="" style="rounded=1;whiteSpace=wrap;html=1;arcSize=4;" vertex="1" parent="1">
          <mxGeometry x="576" y="194.5" width="30" height="40" as="geometry" />
        </mxCell>
        <mxCell id="HMG4qMc4gZ07I0upvnWa-189" value="" style="rounded=1;whiteSpace=wrap;html=1;arcSize=4;" vertex="1" parent="1">
          <mxGeometry x="542" y="234.5" width="30" height="40" as="geometry" />
        </mxCell>
        <mxCell id="HMG4qMc4gZ07I0upvnWa-190" value="" style="rounded=1;whiteSpace=wrap;html=1;arcSize=4;" vertex="1" parent="1">
          <mxGeometry x="576" y="234.5" width="30" height="40" as="geometry" />
        </mxCell>
        <mxCell id="HMG4qMc4gZ07I0upvnWa-191" value="" style="rounded=1;whiteSpace=wrap;html=1;arcSize=4;" vertex="1" parent="1">
          <mxGeometry x="542" y="275.5" width="30" height="40" as="geometry" />
        </mxCell>
        <mxCell id="HMG4qMc4gZ07I0upvnWa-192" value="" style="rounded=1;whiteSpace=wrap;html=1;arcSize=4;" vertex="1" parent="1">
          <mxGeometry x="576" y="275.5" width="30" height="40" as="geometry" />
        </mxCell>
        <mxCell id="HMG4qMc4gZ07I0upvnWa-193" value="" style="rounded=1;whiteSpace=wrap;html=1;arcSize=4;" vertex="1" parent="1">
          <mxGeometry x="542" y="315.5" width="30" height="40" as="geometry" />
        </mxCell>
        <mxCell id="HMG4qMc4gZ07I0upvnWa-194" value="" style="rounded=1;whiteSpace=wrap;html=1;arcSize=4;" vertex="1" parent="1">
          <mxGeometry x="576" y="315.5" width="30" height="40" as="geometry" />
        </mxCell>
        <mxCell id="HMG4qMc4gZ07I0upvnWa-195" value="" style="rounded=1;whiteSpace=wrap;html=1;arcSize=4;" vertex="1" parent="1">
          <mxGeometry x="542" y="356.5" width="30" height="40" as="geometry" />
        </mxCell>
        <mxCell id="HMG4qMc4gZ07I0upvnWa-196" value="" style="rounded=1;whiteSpace=wrap;html=1;arcSize=4;" vertex="1" parent="1">
          <mxGeometry x="576" y="356.5" width="30" height="40" as="geometry" />
        </mxCell>
        <mxCell id="HMG4qMc4gZ07I0upvnWa-197" value="" style="rounded=1;whiteSpace=wrap;html=1;arcSize=4;" vertex="1" parent="1">
          <mxGeometry x="542" y="396.5" width="30" height="40" as="geometry" />
        </mxCell>
        <mxCell id="HMG4qMc4gZ07I0upvnWa-198" value="" style="rounded=1;whiteSpace=wrap;html=1;arcSize=4;" vertex="1" parent="1">
          <mxGeometry x="576" y="396.5" width="30" height="40" as="geometry" />
        </mxCell>
        <mxCell id="HMG4qMc4gZ07I0upvnWa-199" value="" style="rounded=1;whiteSpace=wrap;html=1;arcSize=4;" vertex="1" parent="1">
          <mxGeometry x="642" y="113.5" width="30" height="40" as="geometry" />
        </mxCell>
        <mxCell id="HMG4qMc4gZ07I0upvnWa-200" value="" style="rounded=1;whiteSpace=wrap;html=1;arcSize=4;" vertex="1" parent="1">
          <mxGeometry x="676" y="113.5" width="30" height="40" as="geometry" />
        </mxCell>
        <mxCell id="HMG4qMc4gZ07I0upvnWa-201" value="" style="rounded=1;whiteSpace=wrap;html=1;arcSize=4;" vertex="1" parent="1">
          <mxGeometry x="642" y="153.5" width="30" height="40" as="geometry" />
        </mxCell>
        <mxCell id="HMG4qMc4gZ07I0upvnWa-202" value="" style="rounded=1;whiteSpace=wrap;html=1;arcSize=4;" vertex="1" parent="1">
          <mxGeometry x="676" y="153.5" width="30" height="40" as="geometry" />
        </mxCell>
        <mxCell id="HMG4qMc4gZ07I0upvnWa-203" value="" style="rounded=1;whiteSpace=wrap;html=1;arcSize=4;" vertex="1" parent="1">
          <mxGeometry x="642" y="194.5" width="30" height="40" as="geometry" />
        </mxCell>
        <mxCell id="HMG4qMc4gZ07I0upvnWa-204" value="" style="rounded=1;whiteSpace=wrap;html=1;arcSize=4;" vertex="1" parent="1">
          <mxGeometry x="676" y="194.5" width="30" height="40" as="geometry" />
        </mxCell>
        <mxCell id="HMG4qMc4gZ07I0upvnWa-205" value="" style="rounded=1;whiteSpace=wrap;html=1;arcSize=4;" vertex="1" parent="1">
          <mxGeometry x="642" y="234.5" width="30" height="40" as="geometry" />
        </mxCell>
        <mxCell id="HMG4qMc4gZ07I0upvnWa-206" value="" style="rounded=1;whiteSpace=wrap;html=1;arcSize=4;" vertex="1" parent="1">
          <mxGeometry x="676" y="234.5" width="30" height="40" as="geometry" />
        </mxCell>
        <mxCell id="HMG4qMc4gZ07I0upvnWa-207" value="" style="rounded=1;whiteSpace=wrap;html=1;arcSize=4;" vertex="1" parent="1">
          <mxGeometry x="642" y="275.5" width="30" height="40" as="geometry" />
        </mxCell>
        <mxCell id="HMG4qMc4gZ07I0upvnWa-208" value="" style="rounded=1;whiteSpace=wrap;html=1;arcSize=4;" vertex="1" parent="1">
          <mxGeometry x="676" y="275.5" width="30" height="40" as="geometry" />
        </mxCell>
        <mxCell id="HMG4qMc4gZ07I0upvnWa-209" value="" style="rounded=1;whiteSpace=wrap;html=1;arcSize=4;" vertex="1" parent="1">
          <mxGeometry x="642" y="315.5" width="30" height="40" as="geometry" />
        </mxCell>
        <mxCell id="HMG4qMc4gZ07I0upvnWa-210" value="" style="rounded=1;whiteSpace=wrap;html=1;arcSize=4;" vertex="1" parent="1">
          <mxGeometry x="676" y="315.5" width="30" height="40" as="geometry" />
        </mxCell>
        <mxCell id="HMG4qMc4gZ07I0upvnWa-211" value="" style="rounded=1;whiteSpace=wrap;html=1;arcSize=4;" vertex="1" parent="1">
          <mxGeometry x="642" y="356.5" width="30" height="40" as="geometry" />
        </mxCell>
        <mxCell id="HMG4qMc4gZ07I0upvnWa-212" value="" style="rounded=1;whiteSpace=wrap;html=1;arcSize=4;" vertex="1" parent="1">
          <mxGeometry x="676" y="356.5" width="30" height="40" as="geometry" />
        </mxCell>
        <mxCell id="HMG4qMc4gZ07I0upvnWa-213" value="" style="rounded=1;whiteSpace=wrap;html=1;arcSize=4;" vertex="1" parent="1">
          <mxGeometry x="642" y="396.5" width="30" height="40" as="geometry" />
        </mxCell>
        <mxCell id="HMG4qMc4gZ07I0upvnWa-214" value="" style="rounded=1;whiteSpace=wrap;html=1;arcSize=4;" vertex="1" parent="1">
          <mxGeometry x="676" y="396.5" width="30" height="40" as="geometry" />
        </mxCell>
        <mxCell id="HMG4qMc4gZ07I0upvnWa-215" value="" style="rounded=1;whiteSpace=wrap;html=1;arcSize=4;" vertex="1" parent="1">
          <mxGeometry x="742" y="113.5" width="30" height="40" as="geometry" />
        </mxCell>
        <mxCell id="HMG4qMc4gZ07I0upvnWa-216" value="" style="rounded=1;whiteSpace=wrap;html=1;arcSize=4;" vertex="1" parent="1">
          <mxGeometry x="776" y="113.5" width="30" height="40" as="geometry" />
        </mxCell>
        <mxCell id="HMG4qMc4gZ07I0upvnWa-217" value="" style="rounded=1;whiteSpace=wrap;html=1;arcSize=4;" vertex="1" parent="1">
          <mxGeometry x="742" y="153.5" width="30" height="40" as="geometry" />
        </mxCell>
        <mxCell id="HMG4qMc4gZ07I0upvnWa-218" value="" style="rounded=1;whiteSpace=wrap;html=1;arcSize=4;" vertex="1" parent="1">
          <mxGeometry x="776" y="153.5" width="30" height="40" as="geometry" />
        </mxCell>
        <mxCell id="HMG4qMc4gZ07I0upvnWa-219" value="" style="rounded=1;whiteSpace=wrap;html=1;arcSize=4;" vertex="1" parent="1">
          <mxGeometry x="742" y="194.5" width="30" height="40" as="geometry" />
        </mxCell>
        <mxCell id="HMG4qMc4gZ07I0upvnWa-220" value="" style="rounded=1;whiteSpace=wrap;html=1;arcSize=4;" vertex="1" parent="1">
          <mxGeometry x="776" y="194.5" width="30" height="40" as="geometry" />
        </mxCell>
        <mxCell id="HMG4qMc4gZ07I0upvnWa-221" value="" style="rounded=1;whiteSpace=wrap;html=1;arcSize=4;" vertex="1" parent="1">
          <mxGeometry x="742" y="234.5" width="30" height="40" as="geometry" />
        </mxCell>
        <mxCell id="HMG4qMc4gZ07I0upvnWa-222" value="" style="rounded=1;whiteSpace=wrap;html=1;arcSize=4;" vertex="1" parent="1">
          <mxGeometry x="776" y="234.5" width="30" height="40" as="geometry" />
        </mxCell>
        <mxCell id="HMG4qMc4gZ07I0upvnWa-223" value="" style="rounded=1;whiteSpace=wrap;html=1;arcSize=4;" vertex="1" parent="1">
          <mxGeometry x="742" y="275.5" width="30" height="40" as="geometry" />
        </mxCell>
        <mxCell id="HMG4qMc4gZ07I0upvnWa-224" value="" style="rounded=1;whiteSpace=wrap;html=1;arcSize=4;" vertex="1" parent="1">
          <mxGeometry x="776" y="275.5" width="30" height="40" as="geometry" />
        </mxCell>
        <mxCell id="HMG4qMc4gZ07I0upvnWa-225" value="" style="rounded=1;whiteSpace=wrap;html=1;arcSize=4;" vertex="1" parent="1">
          <mxGeometry x="742" y="315.5" width="30" height="40" as="geometry" />
        </mxCell>
        <mxCell id="HMG4qMc4gZ07I0upvnWa-226" value="" style="rounded=1;whiteSpace=wrap;html=1;arcSize=4;" vertex="1" parent="1">
          <mxGeometry x="776" y="315.5" width="30" height="40" as="geometry" />
        </mxCell>
        <mxCell id="HMG4qMc4gZ07I0upvnWa-227" value="" style="rounded=1;whiteSpace=wrap;html=1;arcSize=4;" vertex="1" parent="1">
          <mxGeometry x="742" y="356.5" width="30" height="40" as="geometry" />
        </mxCell>
        <mxCell id="HMG4qMc4gZ07I0upvnWa-228" value="" style="rounded=1;whiteSpace=wrap;html=1;arcSize=4;" vertex="1" parent="1">
          <mxGeometry x="776" y="356.5" width="30" height="40" as="geometry" />
        </mxCell>
        <mxCell id="HMG4qMc4gZ07I0upvnWa-229" value="" style="rounded=1;whiteSpace=wrap;html=1;arcSize=4;" vertex="1" parent="1">
          <mxGeometry x="742" y="396.5" width="30" height="40" as="geometry" />
        </mxCell>
        <mxCell id="HMG4qMc4gZ07I0upvnWa-230" value="" style="rounded=1;whiteSpace=wrap;html=1;arcSize=4;" vertex="1" parent="1">
          <mxGeometry x="776" y="396.5" width="30" height="40" as="geometry" />
        </mxCell>
        <mxCell id="HMG4qMc4gZ07I0upvnWa-231" value="" style="rounded=1;whiteSpace=wrap;html=1;arcSize=4;" vertex="1" parent="1">
          <mxGeometry x="948" y="113.5" width="30" height="40" as="geometry" />
        </mxCell>
        <mxCell id="HMG4qMc4gZ07I0upvnWa-232" value="" style="rounded=1;whiteSpace=wrap;html=1;arcSize=4;" vertex="1" parent="1">
          <mxGeometry x="982" y="113.5" width="30" height="40" as="geometry" />
        </mxCell>
        <mxCell id="HMG4qMc4gZ07I0upvnWa-233" value="" style="rounded=1;whiteSpace=wrap;html=1;arcSize=4;" vertex="1" parent="1">
          <mxGeometry x="948" y="153.5" width="30" height="40" as="geometry" />
        </mxCell>
        <mxCell id="HMG4qMc4gZ07I0upvnWa-234" value="" style="rounded=1;whiteSpace=wrap;html=1;arcSize=4;" vertex="1" parent="1">
          <mxGeometry x="982" y="153.5" width="30" height="40" as="geometry" />
        </mxCell>
        <mxCell id="HMG4qMc4gZ07I0upvnWa-235" value="" style="rounded=1;whiteSpace=wrap;html=1;arcSize=4;" vertex="1" parent="1">
          <mxGeometry x="948" y="194.5" width="30" height="40" as="geometry" />
        </mxCell>
        <mxCell id="HMG4qMc4gZ07I0upvnWa-236" value="" style="rounded=1;whiteSpace=wrap;html=1;arcSize=4;" vertex="1" parent="1">
          <mxGeometry x="982" y="194.5" width="30" height="40" as="geometry" />
        </mxCell>
        <mxCell id="HMG4qMc4gZ07I0upvnWa-237" value="" style="rounded=1;whiteSpace=wrap;html=1;arcSize=4;" vertex="1" parent="1">
          <mxGeometry x="948" y="234.5" width="30" height="40" as="geometry" />
        </mxCell>
        <mxCell id="HMG4qMc4gZ07I0upvnWa-238" value="" style="rounded=1;whiteSpace=wrap;html=1;arcSize=4;" vertex="1" parent="1">
          <mxGeometry x="982" y="234.5" width="30" height="40" as="geometry" />
        </mxCell>
        <mxCell id="HMG4qMc4gZ07I0upvnWa-239" value="" style="rounded=1;whiteSpace=wrap;html=1;arcSize=4;" vertex="1" parent="1">
          <mxGeometry x="948" y="275.5" width="30" height="40" as="geometry" />
        </mxCell>
        <mxCell id="HMG4qMc4gZ07I0upvnWa-240" value="" style="rounded=1;whiteSpace=wrap;html=1;arcSize=4;" vertex="1" parent="1">
          <mxGeometry x="982" y="275.5" width="30" height="40" as="geometry" />
        </mxCell>
        <mxCell id="HMG4qMc4gZ07I0upvnWa-241" value="" style="rounded=1;whiteSpace=wrap;html=1;arcSize=4;" vertex="1" parent="1">
          <mxGeometry x="948" y="315.5" width="30" height="40" as="geometry" />
        </mxCell>
        <mxCell id="HMG4qMc4gZ07I0upvnWa-242" value="" style="rounded=1;whiteSpace=wrap;html=1;arcSize=4;" vertex="1" parent="1">
          <mxGeometry x="982" y="315.5" width="30" height="40" as="geometry" />
        </mxCell>
        <mxCell id="HMG4qMc4gZ07I0upvnWa-243" value="" style="rounded=1;whiteSpace=wrap;html=1;arcSize=4;" vertex="1" parent="1">
          <mxGeometry x="948" y="356.5" width="30" height="40" as="geometry" />
        </mxCell>
        <mxCell id="HMG4qMc4gZ07I0upvnWa-244" value="" style="rounded=1;whiteSpace=wrap;html=1;arcSize=4;" vertex="1" parent="1">
          <mxGeometry x="982" y="356.5" width="30" height="40" as="geometry" />
        </mxCell>
        <mxCell id="HMG4qMc4gZ07I0upvnWa-245" value="" style="rounded=1;whiteSpace=wrap;html=1;arcSize=4;" vertex="1" parent="1">
          <mxGeometry x="948" y="396.5" width="30" height="40" as="geometry" />
        </mxCell>
        <mxCell id="HMG4qMc4gZ07I0upvnWa-246" value="" style="rounded=1;whiteSpace=wrap;html=1;arcSize=4;" vertex="1" parent="1">
          <mxGeometry x="982" y="396.5" width="30" height="40" as="geometry" />
        </mxCell>
        <mxCell id="HMG4qMc4gZ07I0upvnWa-247" value="" style="rounded=1;whiteSpace=wrap;html=1;arcSize=4;" vertex="1" parent="1">
          <mxGeometry x="1048" y="113.5" width="30" height="40" as="geometry" />
        </mxCell>
        <mxCell id="HMG4qMc4gZ07I0upvnWa-248" value="" style="rounded=1;whiteSpace=wrap;html=1;arcSize=4;" vertex="1" parent="1">
          <mxGeometry x="1082" y="113.5" width="30" height="40" as="geometry" />
        </mxCell>
        <mxCell id="HMG4qMc4gZ07I0upvnWa-249" value="" style="rounded=1;whiteSpace=wrap;html=1;arcSize=4;" vertex="1" parent="1">
          <mxGeometry x="1048" y="153.5" width="30" height="40" as="geometry" />
        </mxCell>
        <mxCell id="HMG4qMc4gZ07I0upvnWa-250" value="" style="rounded=1;whiteSpace=wrap;html=1;arcSize=4;" vertex="1" parent="1">
          <mxGeometry x="1082" y="153.5" width="30" height="40" as="geometry" />
        </mxCell>
        <mxCell id="HMG4qMc4gZ07I0upvnWa-251" value="" style="rounded=1;whiteSpace=wrap;html=1;arcSize=4;" vertex="1" parent="1">
          <mxGeometry x="1048" y="194.5" width="30" height="40" as="geometry" />
        </mxCell>
        <mxCell id="HMG4qMc4gZ07I0upvnWa-252" value="" style="rounded=1;whiteSpace=wrap;html=1;arcSize=4;" vertex="1" parent="1">
          <mxGeometry x="1082" y="194.5" width="30" height="40" as="geometry" />
        </mxCell>
        <mxCell id="HMG4qMc4gZ07I0upvnWa-253" value="" style="rounded=1;whiteSpace=wrap;html=1;arcSize=4;" vertex="1" parent="1">
          <mxGeometry x="1048" y="234.5" width="30" height="40" as="geometry" />
        </mxCell>
        <mxCell id="HMG4qMc4gZ07I0upvnWa-254" value="" style="rounded=1;whiteSpace=wrap;html=1;arcSize=4;" vertex="1" parent="1">
          <mxGeometry x="1082" y="234.5" width="30" height="40" as="geometry" />
        </mxCell>
        <mxCell id="HMG4qMc4gZ07I0upvnWa-255" value="" style="rounded=1;whiteSpace=wrap;html=1;arcSize=4;" vertex="1" parent="1">
          <mxGeometry x="1048" y="275.5" width="30" height="40" as="geometry" />
        </mxCell>
        <mxCell id="HMG4qMc4gZ07I0upvnWa-256" value="" style="rounded=1;whiteSpace=wrap;html=1;arcSize=4;" vertex="1" parent="1">
          <mxGeometry x="1082" y="275.5" width="30" height="40" as="geometry" />
        </mxCell>
        <mxCell id="HMG4qMc4gZ07I0upvnWa-257" value="" style="rounded=1;whiteSpace=wrap;html=1;arcSize=4;" vertex="1" parent="1">
          <mxGeometry x="1048" y="315.5" width="30" height="40" as="geometry" />
        </mxCell>
        <mxCell id="HMG4qMc4gZ07I0upvnWa-258" value="" style="rounded=1;whiteSpace=wrap;html=1;arcSize=4;" vertex="1" parent="1">
          <mxGeometry x="1082" y="315.5" width="30" height="40" as="geometry" />
        </mxCell>
        <mxCell id="HMG4qMc4gZ07I0upvnWa-259" value="" style="rounded=1;whiteSpace=wrap;html=1;arcSize=4;" vertex="1" parent="1">
          <mxGeometry x="1048" y="356.5" width="30" height="40" as="geometry" />
        </mxCell>
        <mxCell id="HMG4qMc4gZ07I0upvnWa-260" value="" style="rounded=1;whiteSpace=wrap;html=1;arcSize=4;" vertex="1" parent="1">
          <mxGeometry x="1082" y="356.5" width="30" height="40" as="geometry" />
        </mxCell>
        <mxCell id="HMG4qMc4gZ07I0upvnWa-261" value="" style="rounded=1;whiteSpace=wrap;html=1;arcSize=4;" vertex="1" parent="1">
          <mxGeometry x="1048" y="396.5" width="30" height="40" as="geometry" />
        </mxCell>
        <mxCell id="HMG4qMc4gZ07I0upvnWa-262" value="" style="rounded=1;whiteSpace=wrap;html=1;arcSize=4;" vertex="1" parent="1">
          <mxGeometry x="1082" y="396.5" width="30" height="40" as="geometry" />
        </mxCell>
        <mxCell id="HMG4qMc4gZ07I0upvnWa-263" value="" style="rounded=1;whiteSpace=wrap;html=1;arcSize=4;" vertex="1" parent="1">
          <mxGeometry x="1148" y="113.5" width="30" height="40" as="geometry" />
        </mxCell>
        <mxCell id="HMG4qMc4gZ07I0upvnWa-264" value="" style="rounded=1;whiteSpace=wrap;html=1;arcSize=4;" vertex="1" parent="1">
          <mxGeometry x="1182" y="113.5" width="30" height="40" as="geometry" />
        </mxCell>
        <mxCell id="HMG4qMc4gZ07I0upvnWa-265" value="" style="rounded=1;whiteSpace=wrap;html=1;arcSize=4;" vertex="1" parent="1">
          <mxGeometry x="1148" y="153.5" width="30" height="40" as="geometry" />
        </mxCell>
        <mxCell id="HMG4qMc4gZ07I0upvnWa-266" value="" style="rounded=1;whiteSpace=wrap;html=1;arcSize=4;" vertex="1" parent="1">
          <mxGeometry x="1182" y="153.5" width="30" height="40" as="geometry" />
        </mxCell>
        <mxCell id="HMG4qMc4gZ07I0upvnWa-267" value="" style="rounded=1;whiteSpace=wrap;html=1;arcSize=4;" vertex="1" parent="1">
          <mxGeometry x="1148" y="194.5" width="30" height="40" as="geometry" />
        </mxCell>
        <mxCell id="HMG4qMc4gZ07I0upvnWa-268" value="" style="rounded=1;whiteSpace=wrap;html=1;arcSize=4;" vertex="1" parent="1">
          <mxGeometry x="1182" y="194.5" width="30" height="40" as="geometry" />
        </mxCell>
        <mxCell id="HMG4qMc4gZ07I0upvnWa-269" value="" style="rounded=1;whiteSpace=wrap;html=1;arcSize=4;" vertex="1" parent="1">
          <mxGeometry x="1148" y="234.5" width="30" height="40" as="geometry" />
        </mxCell>
        <mxCell id="HMG4qMc4gZ07I0upvnWa-270" value="" style="rounded=1;whiteSpace=wrap;html=1;arcSize=4;" vertex="1" parent="1">
          <mxGeometry x="1182" y="234.5" width="30" height="40" as="geometry" />
        </mxCell>
        <mxCell id="HMG4qMc4gZ07I0upvnWa-271" value="" style="rounded=1;whiteSpace=wrap;html=1;arcSize=4;" vertex="1" parent="1">
          <mxGeometry x="1148" y="275.5" width="30" height="40" as="geometry" />
        </mxCell>
        <mxCell id="HMG4qMc4gZ07I0upvnWa-272" value="" style="rounded=1;whiteSpace=wrap;html=1;arcSize=4;" vertex="1" parent="1">
          <mxGeometry x="1182" y="275.5" width="30" height="40" as="geometry" />
        </mxCell>
        <mxCell id="HMG4qMc4gZ07I0upvnWa-273" value="" style="rounded=1;whiteSpace=wrap;html=1;arcSize=4;" vertex="1" parent="1">
          <mxGeometry x="1148" y="315.5" width="30" height="40" as="geometry" />
        </mxCell>
        <mxCell id="HMG4qMc4gZ07I0upvnWa-274" value="" style="rounded=1;whiteSpace=wrap;html=1;arcSize=4;" vertex="1" parent="1">
          <mxGeometry x="1182" y="315.5" width="30" height="40" as="geometry" />
        </mxCell>
        <mxCell id="HMG4qMc4gZ07I0upvnWa-275" value="" style="rounded=1;whiteSpace=wrap;html=1;arcSize=4;" vertex="1" parent="1">
          <mxGeometry x="1148" y="356.5" width="30" height="40" as="geometry" />
        </mxCell>
        <mxCell id="HMG4qMc4gZ07I0upvnWa-276" value="" style="rounded=1;whiteSpace=wrap;html=1;arcSize=4;" vertex="1" parent="1">
          <mxGeometry x="1182" y="356.5" width="30" height="40" as="geometry" />
        </mxCell>
        <mxCell id="HMG4qMc4gZ07I0upvnWa-277" value="" style="rounded=1;whiteSpace=wrap;html=1;arcSize=4;" vertex="1" parent="1">
          <mxGeometry x="1148" y="396.5" width="30" height="40" as="geometry" />
        </mxCell>
        <mxCell id="HMG4qMc4gZ07I0upvnWa-278" value="" style="rounded=1;whiteSpace=wrap;html=1;arcSize=4;" vertex="1" parent="1">
          <mxGeometry x="1182" y="396.5" width="30" height="40" as="geometry" />
        </mxCell>
        <mxCell id="HMG4qMc4gZ07I0upvnWa-327" value="Zone - A" style="text;html=1;align=center;verticalAlign=middle;whiteSpace=wrap;rounded=0;fontSize=20;fontStyle=1" vertex="1" parent="1">
          <mxGeometry x="71" y="440.5" width="109" height="30" as="geometry" />
        </mxCell>
        <mxCell id="HMG4qMc4gZ07I0upvnWa-328" value="Zone - B" style="text;html=1;align=center;verticalAlign=middle;whiteSpace=wrap;rounded=0;fontSize=20;fontStyle=1" vertex="1" parent="1">
          <mxGeometry x="495" y="440.5" width="109" height="30" as="geometry" />
        </mxCell>
        <mxCell id="HMG4qMc4gZ07I0upvnWa-329" value="Zone - C" style="text;html=1;align=center;verticalAlign=middle;whiteSpace=wrap;rounded=0;fontSize=20;fontStyle=1" vertex="1" parent="1">
          <mxGeometry x="908.5" y="440.5" width="109" height="30" as="geometry" />
        </mxCell>
        <mxCell id="HMG4qMc4gZ07I0upvnWa-330" value="Zone - D" style="text;html=1;align=center;verticalAlign=middle;whiteSpace=wrap;rounded=0;fontSize=20;fontStyle=1" vertex="1" parent="1">
          <mxGeometry x="1310" y="436.5" width="109" height="30" as="geometry" />
        </mxCell>
      </root>
    </mxGraphModel>
  </diagram>
</mxfile>
